<svg xmlns="http://www.w3.org/2000/svg" xmlns:xlink="http://www.w3.org/1999/xlink" width="345" height="248" version="1.1" viewBox="0 0 345 248"><title>icon_fail</title><desc>Created with Sketch.</desc><g id="Page-1" fill="none" fill-rule="evenodd" stroke="none" stroke-width="1"><g id="开票失败" transform="translate(-193.000000, -313.000000)"><g id="icon_fail" transform="translate(193.000000, 308.000000)"><g id="Group-2" stroke="#CCC" stroke-linecap="round" stroke-linejoin="round" transform="translate(49.550000, 0.880000)"><path id="Stroke-108" stroke-width="6.93" d="M44.1381652,70.5825116 C50.061873,61.9918603 57.2568994,54.3454304 65.4515113,47.914955 C82.9463873,34.1863767 104.997275,26 128.96,26 C185.822749,26 231.92,72.0972512 231.92,128.96 C231.92,185.822749 185.822749,231.92 128.96,231.92 C72.0972512,231.92 26,185.822749 26,128.96 M31.5781359,95.4445504 C31.8866046,94.5481011 32.2071031,93.6572492 32.5394386,92.7721875" transform="translate(128.960000, 128.960000) rotate(17.000000) translate(-128.960000, -128.960000)"/><g id="Group-3" stroke-width="7" transform="translate(92.000000, 87.000000)"><path id="Stroke-114" d="M73.2392,0.516 L0.159177729,82.7310251"/><path id="Stroke-114" d="M73.2392,0.516 L0.159177729,82.7310251" transform="translate(36.699189, 41.623513) scale(-1, 1) translate(-36.699189, -41.623513)"/></g></g><circle id="Oval-3" cx="56.48" cy="243.43" r="7.92" fill="#E6E6E6"/><circle id="Oval-3-Copy-4" cx="63.905" cy="217.195" r="3.465" fill="#E6E6E6"/><circle id="Oval-3-Copy-5" cx="290.615" cy="230.065" r="3.465" fill="#E6E6E6"/><circle id="Oval-3-Copy-6" cx="341.105" cy="162.745" r="3.465" fill="#E6E6E6"/><circle id="Oval-3-Copy-3" cx="302.99" cy="247.39" r="4.95" fill="#E6E6E6"/><circle id="Oval-3-Copy" cx="332.69" cy="13.75" r="7.92" fill="#E6E6E6"/><circle id="Oval-3-Copy-2" cx="5" cy="108.79" r="4.95" fill="#E6E6E6"/></g></g></g></svg>