<svg xmlns="http://www.w3.org/2000/svg" xmlns:xlink="http://www.w3.org/1999/xlink" width="345" height="266" version="1.1" viewBox="0 0 345 266"><title>icon_succeed</title><desc>Created with Sketch.</desc><defs><path id="path-1" d="M43.8781652,70.3225116 C49.801873,61.7318603 56.9968994,54.0854304 65.1915113,47.654955 C82.6863873,33.9263767 104.737275,25.74 128.7,25.74 C185.562749,25.74 231.66,71.8372512 231.66,128.7 C231.66,185.562749 185.562749,231.66 128.7,231.66 C71.8372512,231.66 25.74,185.562749 25.74,128.7 M31.3181359,95.1845504 C31.6266046,94.2881011 31.9471031,93.3972492 32.2794386,92.5121875"/><filter id="filter-2" width="145.1%" height="145.1%" x="-22.6%" y="-17.2%" filterUnits="objectBoundingBox"><feMorphology in="SourceAlpha" operator="dilate" radius="3.465" result="shadowSpreadOuter1"/><feOffset dx="0" dy="11" in="shadowSpreadOuter1" result="shadowOffsetOuter1"/><feMorphology in="SourceAlpha" operator="erode" radius="3.465" result="shadowInner"/><feOffset dx="0" dy="11" in="shadowInner" result="shadowInner"/><feComposite in="shadowOffsetOuter1" in2="shadowInner" operator="out" result="shadowOffsetOuter1"/><feGaussianBlur in="shadowOffsetOuter1" result="shadowBlurOuter1" stdDeviation="12.5"/><feColorMatrix in="shadowBlurOuter1" type="matrix" values="0 0 0 0 0.882352941 0 0 0 0 0.305882353 0 0 0 0 0.180392157 0 0 0 0.144248188 0"/></filter><polyline id="path-3" points="182.239 87.516 116.345 161.647 75.161 128.7"/><filter id="filter-4" width="187.7%" height="226.7%" x="-43.9%" y="-48.5%" filterUnits="objectBoundingBox"><feMorphology in="SourceAlpha" operator="dilate" radius="3.96" result="shadowSpreadOuter1"/><feOffset dx="0" dy="11" in="shadowSpreadOuter1" result="shadowOffsetOuter1"/><feMorphology in="SourceAlpha" operator="erode" radius="3.96" result="shadowInner"/><feOffset dx="0" dy="11" in="shadowInner" result="shadowInner"/><feComposite in="shadowOffsetOuter1" in2="shadowInner" operator="out" result="shadowOffsetOuter1"/><feGaussianBlur in="shadowOffsetOuter1" result="shadowBlurOuter1" stdDeviation="12.5"/><feColorMatrix in="shadowBlurOuter1" type="matrix" values="0 0 0 0 0.882352941 0 0 0 0 0.305882353 0 0 0 0 0.180392157 0 0 0 0.160411005 0"/></filter></defs><g id="Page-1" fill="none" fill-rule="evenodd" stroke="none" stroke-width="1"><g id="开票成功" transform="translate(-193.000000, -313.000000)"><g id="icon_succeed" transform="translate(193.000000, 308.000000)"><g id="Group-2" stroke-linecap="round" stroke-linejoin="round" transform="translate(49.550000, 0.880000)"><g id="Stroke-108" transform="translate(128.700000, 128.700000) rotate(17.000000) translate(-128.700000, -128.700000)"><use fill="#000" fill-opacity="1" filter="url(#filter-2)" xlink:href="#path-1"/><use stroke="#E14E2E" stroke-width="6.93" xlink:href="#path-1"/></g><g id="Stroke-114"><use fill="#000" fill-opacity="1" filter="url(#filter-4)" xlink:href="#path-3"/><use stroke="#E14E2E" stroke-width="7.92" xlink:href="#path-3"/></g></g><circle id="Oval-3" cx="56.48" cy="243.43" r="7.92" fill="#FAA28F"/><circle id="Oval-3-Copy-4" cx="63.905" cy="217.195" r="3.465" fill="#FAA28F"/><circle id="Oval-3-Copy-5" cx="290.615" cy="230.065" r="3.465" fill="#FAA28F"/><circle id="Oval-3-Copy-6" cx="341.105" cy="162.745" r="3.465" fill="#F5B7AA"/><circle id="Oval-3-Copy-3" cx="302.99" cy="247.39" r="4.95" fill="#FAA28F"/><circle id="Oval-3-Copy" cx="332.69" cy="13.75" r="7.92" fill="#FAA28F"/><circle id="Oval-3-Copy-2" cx="5" cy="108.79" r="4.95" fill="#FAA28F"/></g></g></g></svg>